<mxfile host="app.diagrams.net" agent="Mozilla/5.0 (Windows NT 10.0; Win64; x64) AppleWebKit/537.36 (KHTML, like Gecko) Chrome/136.0.0.0 Safari/537.36" version="27.0.9">
  <diagram id="prtHgNgQTEPvFCAcTncT" name="Page-1">
    <mxGraphModel dx="1317" dy="624" grid="1" gridSize="10" guides="1" tooltips="1" connect="1" arrows="1" fold="1" page="1" pageScale="1" pageWidth="827" pageHeight="1169" math="0" shadow="0">
      <root>
        <mxCell id="0" />
        <mxCell id="1" parent="0" />
        <mxCell id="zxcluQsNIQkMvUdcuhl5-12" style="edgeStyle=orthogonalEdgeStyle;rounded=0;orthogonalLoop=1;jettySize=auto;html=1;entryX=0.5;entryY=0;entryDx=0;entryDy=0;curved=1;" edge="1" parent="1" source="zxcluQsNIQkMvUdcuhl5-1" target="zxcluQsNIQkMvUdcuhl5-7">
          <mxGeometry relative="1" as="geometry" />
        </mxCell>
        <mxCell id="zxcluQsNIQkMvUdcuhl5-1" value="MK" style="shape=umlActor;verticalLabelPosition=bottom;verticalAlign=top;html=1;outlineConnect=0;" vertex="1" parent="1">
          <mxGeometry x="100" y="90" width="30" height="60" as="geometry" />
        </mxCell>
        <mxCell id="zxcluQsNIQkMvUdcuhl5-14" style="edgeStyle=orthogonalEdgeStyle;rounded=0;orthogonalLoop=1;jettySize=auto;html=1;entryX=0.018;entryY=0.644;entryDx=0;entryDy=0;curved=1;entryPerimeter=0;" edge="1" parent="1" source="zxcluQsNIQkMvUdcuhl5-2" target="zxcluQsNIQkMvUdcuhl5-7">
          <mxGeometry relative="1" as="geometry" />
        </mxCell>
        <mxCell id="zxcluQsNIQkMvUdcuhl5-15" style="edgeStyle=orthogonalEdgeStyle;rounded=0;orthogonalLoop=1;jettySize=auto;html=1;entryX=0.5;entryY=1;entryDx=0;entryDy=0;curved=1;" edge="1" parent="1" source="zxcluQsNIQkMvUdcuhl5-2" target="zxcluQsNIQkMvUdcuhl5-9">
          <mxGeometry relative="1" as="geometry">
            <Array as="points">
              <mxPoint x="115" y="790" />
              <mxPoint x="560" y="790" />
            </Array>
          </mxGeometry>
        </mxCell>
        <mxCell id="zxcluQsNIQkMvUdcuhl5-33" style="edgeStyle=orthogonalEdgeStyle;rounded=0;orthogonalLoop=1;jettySize=auto;html=1;curved=1;" edge="1" parent="1" source="zxcluQsNIQkMvUdcuhl5-2" target="zxcluQsNIQkMvUdcuhl5-10">
          <mxGeometry relative="1" as="geometry">
            <Array as="points">
              <mxPoint x="115" y="830" />
              <mxPoint x="690" y="830" />
              <mxPoint x="690" y="75" />
            </Array>
          </mxGeometry>
        </mxCell>
        <mxCell id="zxcluQsNIQkMvUdcuhl5-2" value="Cooporativo" style="shape=umlActor;verticalLabelPosition=bottom;verticalAlign=top;html=1;outlineConnect=0;" vertex="1" parent="1">
          <mxGeometry x="100" y="300" width="30" height="60" as="geometry" />
        </mxCell>
        <mxCell id="zxcluQsNIQkMvUdcuhl5-19" style="edgeStyle=orthogonalEdgeStyle;rounded=0;orthogonalLoop=1;jettySize=auto;html=1;curved=1;" edge="1" parent="1" source="zxcluQsNIQkMvUdcuhl5-7" target="zxcluQsNIQkMvUdcuhl5-18">
          <mxGeometry relative="1" as="geometry" />
        </mxCell>
        <mxCell id="zxcluQsNIQkMvUdcuhl5-48" style="edgeStyle=orthogonalEdgeStyle;rounded=0;orthogonalLoop=1;jettySize=auto;html=1;entryX=0;entryY=0.5;entryDx=0;entryDy=0;curved=1;" edge="1" parent="1" source="zxcluQsNIQkMvUdcuhl5-7" target="zxcluQsNIQkMvUdcuhl5-30">
          <mxGeometry relative="1" as="geometry" />
        </mxCell>
        <mxCell id="zxcluQsNIQkMvUdcuhl5-49" style="edgeStyle=orthogonalEdgeStyle;rounded=0;orthogonalLoop=1;jettySize=auto;html=1;entryX=0;entryY=0.5;entryDx=0;entryDy=0;curved=1;" edge="1" parent="1" source="zxcluQsNIQkMvUdcuhl5-7" target="zxcluQsNIQkMvUdcuhl5-38">
          <mxGeometry relative="1" as="geometry" />
        </mxCell>
        <mxCell id="zxcluQsNIQkMvUdcuhl5-68" style="edgeStyle=orthogonalEdgeStyle;rounded=0;orthogonalLoop=1;jettySize=auto;html=1;entryX=0.5;entryY=1;entryDx=0;entryDy=0;exitX=0.976;exitY=0.358;exitDx=0;exitDy=0;exitPerimeter=0;curved=1;" edge="1" parent="1" source="zxcluQsNIQkMvUdcuhl5-7" target="zxcluQsNIQkMvUdcuhl5-66">
          <mxGeometry relative="1" as="geometry" />
        </mxCell>
        <mxCell id="zxcluQsNIQkMvUdcuhl5-7" value="cadastro pre processo" style="ellipse;whiteSpace=wrap;html=1;" vertex="1" parent="1">
          <mxGeometry x="160" y="240" width="80" height="50" as="geometry" />
        </mxCell>
        <mxCell id="zxcluQsNIQkMvUdcuhl5-61" style="edgeStyle=orthogonalEdgeStyle;rounded=0;orthogonalLoop=1;jettySize=auto;html=1;entryX=0.5;entryY=1;entryDx=0;entryDy=0;curved=1;" edge="1" parent="1" source="zxcluQsNIQkMvUdcuhl5-9" target="zxcluQsNIQkMvUdcuhl5-60">
          <mxGeometry relative="1" as="geometry" />
        </mxCell>
        <mxCell id="zxcluQsNIQkMvUdcuhl5-70" style="edgeStyle=orthogonalEdgeStyle;rounded=0;orthogonalLoop=1;jettySize=auto;html=1;entryX=1;entryY=1;entryDx=0;entryDy=0;curved=1;" edge="1" parent="1" source="zxcluQsNIQkMvUdcuhl5-9" target="zxcluQsNIQkMvUdcuhl5-66">
          <mxGeometry relative="1" as="geometry" />
        </mxCell>
        <mxCell id="zxcluQsNIQkMvUdcuhl5-9" value="aceitação processo" style="ellipse;whiteSpace=wrap;html=1;" vertex="1" parent="1">
          <mxGeometry x="520" y="640" width="80" height="50" as="geometry" />
        </mxCell>
        <mxCell id="zxcluQsNIQkMvUdcuhl5-69" style="edgeStyle=orthogonalEdgeStyle;rounded=0;orthogonalLoop=1;jettySize=auto;html=1;curved=1;exitX=0.938;exitY=0.79;exitDx=0;exitDy=0;exitPerimeter=0;" edge="1" parent="1" source="zxcluQsNIQkMvUdcuhl5-10" target="zxcluQsNIQkMvUdcuhl5-66">
          <mxGeometry relative="1" as="geometry" />
        </mxCell>
        <mxCell id="zxcluQsNIQkMvUdcuhl5-10" value="recusa processo&amp;nbsp;" style="ellipse;whiteSpace=wrap;html=1;" vertex="1" parent="1">
          <mxGeometry x="530" y="50" width="80" height="50" as="geometry" />
        </mxCell>
        <mxCell id="zxcluQsNIQkMvUdcuhl5-13" style="edgeStyle=orthogonalEdgeStyle;rounded=0;orthogonalLoop=1;jettySize=auto;html=1;entryX=0;entryY=0.5;entryDx=0;entryDy=0;curved=1;" edge="1" parent="1" source="zxcluQsNIQkMvUdcuhl5-1" target="zxcluQsNIQkMvUdcuhl5-10">
          <mxGeometry relative="1" as="geometry" />
        </mxCell>
        <mxCell id="zxcluQsNIQkMvUdcuhl5-18" value="motivo&lt;br&gt;processo" style="ellipse;whiteSpace=wrap;html=1;" vertex="1" parent="1">
          <mxGeometry x="300" y="190" width="80" height="50" as="geometry" />
        </mxCell>
        <mxCell id="zxcluQsNIQkMvUdcuhl5-21" value="&lt;h6&gt;habilitação&lt;br&gt;extensão de escopo&lt;br&gt;alteração cadastral ...&lt;/h6&gt;" style="ellipse;whiteSpace=wrap;html=1;" vertex="1" parent="1">
          <mxGeometry x="450" y="100" width="100" height="50" as="geometry" />
        </mxCell>
        <mxCell id="zxcluQsNIQkMvUdcuhl5-29" value="Extends" style="endArrow=open;endSize=12;dashed=1;html=1;rounded=0;entryX=0.921;entryY=0.154;entryDx=0;entryDy=0;entryPerimeter=0;edgeStyle=orthogonalEdgeStyle;curved=1;" edge="1" parent="1" source="zxcluQsNIQkMvUdcuhl5-21" target="zxcluQsNIQkMvUdcuhl5-18">
          <mxGeometry x="-0.3288" y="15" width="160" relative="1" as="geometry">
            <mxPoint x="370" y="150" as="sourcePoint" />
            <mxPoint x="530" y="150" as="targetPoint" />
            <mxPoint as="offset" />
          </mxGeometry>
        </mxCell>
        <mxCell id="zxcluQsNIQkMvUdcuhl5-30" value="sif participante" style="ellipse;whiteSpace=wrap;html=1;" vertex="1" parent="1">
          <mxGeometry x="240" y="570" width="80" height="50" as="geometry" />
        </mxCell>
        <mxCell id="zxcluQsNIQkMvUdcuhl5-31" value="produtos interesse" style="ellipse;whiteSpace=wrap;html=1;" vertex="1" parent="1">
          <mxGeometry x="240" y="410" width="80" height="50" as="geometry" />
        </mxCell>
        <mxCell id="zxcluQsNIQkMvUdcuhl5-32" style="edgeStyle=orthogonalEdgeStyle;rounded=0;orthogonalLoop=1;jettySize=auto;html=1;entryX=1;entryY=0.6;entryDx=0;entryDy=0;entryPerimeter=0;curved=1;" edge="1" parent="1" source="zxcluQsNIQkMvUdcuhl5-1" target="zxcluQsNIQkMvUdcuhl5-9">
          <mxGeometry relative="1" as="geometry">
            <Array as="points">
              <mxPoint x="330" y="120" />
              <mxPoint x="330" y="30" />
              <mxPoint x="770" y="30" />
              <mxPoint x="770" y="670" />
            </Array>
          </mxGeometry>
        </mxCell>
        <mxCell id="zxcluQsNIQkMvUdcuhl5-44" style="edgeStyle=orthogonalEdgeStyle;rounded=0;orthogonalLoop=1;jettySize=auto;html=1;entryX=1;entryY=0.5;entryDx=0;entryDy=0;curved=1;" edge="1" parent="1" source="zxcluQsNIQkMvUdcuhl5-36" target="zxcluQsNIQkMvUdcuhl5-37">
          <mxGeometry relative="1" as="geometry" />
        </mxCell>
        <mxCell id="zxcluQsNIQkMvUdcuhl5-36" value="status do pre processo" style="ellipse;whiteSpace=wrap;html=1;" vertex="1" parent="1">
          <mxGeometry x="240" y="490" width="80" height="50" as="geometry" />
        </mxCell>
        <mxCell id="zxcluQsNIQkMvUdcuhl5-37" value="historico alteração" style="ellipse;whiteSpace=wrap;html=1;" vertex="1" parent="1">
          <mxGeometry x="550" y="280" width="80" height="50" as="geometry" />
        </mxCell>
        <mxCell id="zxcluQsNIQkMvUdcuhl5-38" value="pais responsavel pela auditoria" style="ellipse;whiteSpace=wrap;html=1;" vertex="1" parent="1">
          <mxGeometry x="240" y="340" width="130" height="50" as="geometry" />
        </mxCell>
        <mxCell id="zxcluQsNIQkMvUdcuhl5-40" style="edgeStyle=orthogonalEdgeStyle;rounded=0;orthogonalLoop=1;jettySize=auto;html=1;entryX=0;entryY=0.5;entryDx=0;entryDy=0;curved=1;" edge="1" parent="1" target="zxcluQsNIQkMvUdcuhl5-37">
          <mxGeometry relative="1" as="geometry">
            <mxPoint x="240" y="265" as="sourcePoint" />
          </mxGeometry>
        </mxCell>
        <mxCell id="zxcluQsNIQkMvUdcuhl5-41" style="edgeStyle=orthogonalEdgeStyle;rounded=0;orthogonalLoop=1;jettySize=auto;html=1;entryX=0.548;entryY=1;entryDx=0;entryDy=0;entryPerimeter=0;curved=1;" edge="1" parent="1" source="zxcluQsNIQkMvUdcuhl5-38" target="zxcluQsNIQkMvUdcuhl5-37">
          <mxGeometry relative="1" as="geometry" />
        </mxCell>
        <mxCell id="zxcluQsNIQkMvUdcuhl5-42" style="edgeStyle=orthogonalEdgeStyle;rounded=0;orthogonalLoop=1;jettySize=auto;html=1;entryX=0.5;entryY=0;entryDx=0;entryDy=0;curved=1;" edge="1" parent="1" source="zxcluQsNIQkMvUdcuhl5-18" target="zxcluQsNIQkMvUdcuhl5-37">
          <mxGeometry relative="1" as="geometry" />
        </mxCell>
        <mxCell id="zxcluQsNIQkMvUdcuhl5-45" style="edgeStyle=orthogonalEdgeStyle;rounded=0;orthogonalLoop=1;jettySize=auto;html=1;entryX=0.997;entryY=0.368;entryDx=0;entryDy=0;entryPerimeter=0;curved=1;" edge="1" parent="1" source="zxcluQsNIQkMvUdcuhl5-30" target="zxcluQsNIQkMvUdcuhl5-37">
          <mxGeometry relative="1" as="geometry" />
        </mxCell>
        <mxCell id="zxcluQsNIQkMvUdcuhl5-50" style="edgeStyle=orthogonalEdgeStyle;rounded=0;orthogonalLoop=1;jettySize=auto;html=1;entryX=0;entryY=0.6;entryDx=0;entryDy=0;entryPerimeter=0;curved=1;" edge="1" parent="1" source="zxcluQsNIQkMvUdcuhl5-7" target="zxcluQsNIQkMvUdcuhl5-31">
          <mxGeometry relative="1" as="geometry" />
        </mxCell>
        <mxCell id="zxcluQsNIQkMvUdcuhl5-51" style="edgeStyle=orthogonalEdgeStyle;rounded=0;orthogonalLoop=1;jettySize=auto;html=1;entryX=0;entryY=0.6;entryDx=0;entryDy=0;entryPerimeter=0;curved=1;" edge="1" parent="1" source="zxcluQsNIQkMvUdcuhl5-7" target="zxcluQsNIQkMvUdcuhl5-36">
          <mxGeometry relative="1" as="geometry" />
        </mxCell>
        <mxCell id="zxcluQsNIQkMvUdcuhl5-52" style="edgeStyle=orthogonalEdgeStyle;rounded=0;orthogonalLoop=1;jettySize=auto;html=1;entryX=0.401;entryY=1.008;entryDx=0;entryDy=0;entryPerimeter=0;curved=1;" edge="1" parent="1" source="zxcluQsNIQkMvUdcuhl5-31" target="zxcluQsNIQkMvUdcuhl5-37">
          <mxGeometry relative="1" as="geometry" />
        </mxCell>
        <mxCell id="zxcluQsNIQkMvUdcuhl5-53" value="&lt;h6&gt;usuario&lt;br&gt;data inclusão&lt;br&gt;situação&lt;br&gt;observação&lt;/h6&gt;" style="ellipse;whiteSpace=wrap;html=1;" vertex="1" parent="1">
          <mxGeometry x="570" y="160" width="100" height="50" as="geometry" />
        </mxCell>
        <mxCell id="zxcluQsNIQkMvUdcuhl5-55" value="Extends" style="endArrow=open;endSize=12;dashed=1;html=1;rounded=0;entryX=1;entryY=0;entryDx=0;entryDy=0;edgeStyle=orthogonalEdgeStyle;curved=1;" edge="1" parent="1" source="zxcluQsNIQkMvUdcuhl5-53" target="zxcluQsNIQkMvUdcuhl5-37">
          <mxGeometry x="-0.3288" y="15" width="160" relative="1" as="geometry">
            <mxPoint x="614" y="217" as="sourcePoint" />
            <mxPoint x="538" y="290" as="targetPoint" />
            <mxPoint as="offset" />
          </mxGeometry>
        </mxCell>
        <mxCell id="zxcluQsNIQkMvUdcuhl5-56" value="&lt;h6&gt;Unidades&amp;nbsp; aurora&lt;/h6&gt;" style="ellipse;whiteSpace=wrap;html=1;" vertex="1" parent="1">
          <mxGeometry x="250" y="690" width="100" height="50" as="geometry" />
        </mxCell>
        <mxCell id="zxcluQsNIQkMvUdcuhl5-57" value="Extends" style="endArrow=open;endSize=12;dashed=1;html=1;rounded=0;entryX=0.5;entryY=1;entryDx=0;entryDy=0;edgeStyle=orthogonalEdgeStyle;curved=1;" edge="1" parent="1" source="zxcluQsNIQkMvUdcuhl5-56" target="zxcluQsNIQkMvUdcuhl5-30">
          <mxGeometry x="-0.1029" y="-5" width="160" relative="1" as="geometry">
            <mxPoint x="425" y="687" as="sourcePoint" />
            <mxPoint x="310" y="747" as="targetPoint" />
            <mxPoint as="offset" />
          </mxGeometry>
        </mxCell>
        <mxCell id="zxcluQsNIQkMvUdcuhl5-58" value="&lt;h6&gt;lista de produtos&lt;/h6&gt;" style="ellipse;whiteSpace=wrap;html=1;" vertex="1" parent="1">
          <mxGeometry x="400" y="430" width="100" height="50" as="geometry" />
        </mxCell>
        <mxCell id="zxcluQsNIQkMvUdcuhl5-59" value="Extends" style="endArrow=open;endSize=12;dashed=1;html=1;rounded=0;entryX=0.804;entryY=0.935;entryDx=0;entryDy=0;edgeStyle=orthogonalEdgeStyle;curved=1;entryPerimeter=0;" edge="1" parent="1" source="zxcluQsNIQkMvUdcuhl5-58" target="zxcluQsNIQkMvUdcuhl5-31">
          <mxGeometry x="-0.1029" y="-5" width="160" relative="1" as="geometry">
            <mxPoint x="585" y="443.6" as="sourcePoint" />
            <mxPoint x="362.55999999999995" y="360.0000000000001" as="targetPoint" />
            <mxPoint as="offset" />
          </mxGeometry>
        </mxCell>
        <mxCell id="zxcluQsNIQkMvUdcuhl5-60" value="processo expf0310" style="ellipse;whiteSpace=wrap;html=1;" vertex="1" parent="1">
          <mxGeometry x="510" y="420" width="80" height="50" as="geometry" />
        </mxCell>
        <mxCell id="zxcluQsNIQkMvUdcuhl5-62" value="EXPF0310" style="shape=umlActor;verticalLabelPosition=bottom;verticalAlign=top;html=1;outlineConnect=0;" vertex="1" parent="1">
          <mxGeometry x="820" y="500" width="30" height="60" as="geometry" />
        </mxCell>
        <mxCell id="zxcluQsNIQkMvUdcuhl5-64" value="Extends" style="endArrow=open;endSize=12;dashed=1;html=1;rounded=0;edgeStyle=orthogonalEdgeStyle;curved=1;exitX=0.985;exitY=0.636;exitDx=0;exitDy=0;exitPerimeter=0;" edge="1" parent="1" source="zxcluQsNIQkMvUdcuhl5-60" target="zxcluQsNIQkMvUdcuhl5-62">
          <mxGeometry x="-0.184" y="7" width="160" relative="1" as="geometry">
            <mxPoint x="820" y="409.49" as="sourcePoint" />
            <mxPoint x="800" y="339.49" as="targetPoint" />
            <mxPoint as="offset" />
            <Array as="points">
              <mxPoint x="639" y="410" />
              <mxPoint x="835" y="410" />
            </Array>
          </mxGeometry>
        </mxCell>
        <mxCell id="zxcluQsNIQkMvUdcuhl5-66" value="envio de email" style="ellipse;whiteSpace=wrap;html=1;" vertex="1" parent="1">
          <mxGeometry x="760" y="120" width="80" height="50" as="geometry" />
        </mxCell>
        <mxCell id="zxcluQsNIQkMvUdcuhl5-71" value="&lt;h6&gt;lista pais&lt;/h6&gt;" style="ellipse;whiteSpace=wrap;html=1;" vertex="1" parent="1">
          <mxGeometry x="240" y="280" width="60" height="50" as="geometry" />
        </mxCell>
        <mxCell id="zxcluQsNIQkMvUdcuhl5-72" value="Extends" style="endArrow=open;endSize=12;dashed=1;html=1;rounded=0;entryX=0.692;entryY=0;entryDx=0;entryDy=0;edgeStyle=orthogonalEdgeStyle;curved=1;entryPerimeter=0;exitX=1;exitY=0.5;exitDx=0;exitDy=0;" edge="1" parent="1" source="zxcluQsNIQkMvUdcuhl5-71" target="zxcluQsNIQkMvUdcuhl5-38">
          <mxGeometry x="-0.1029" y="-5" width="160" relative="1" as="geometry">
            <mxPoint x="425" y="277" as="sourcePoint" />
            <mxPoint x="280" y="210" as="targetPoint" />
            <mxPoint as="offset" />
          </mxGeometry>
        </mxCell>
        <mxCell id="zxcluQsNIQkMvUdcuhl5-73" value="&lt;h6&gt;lista status&lt;/h6&gt;" style="ellipse;whiteSpace=wrap;html=1;" vertex="1" parent="1">
          <mxGeometry x="384" y="520" width="60" height="30" as="geometry" />
        </mxCell>
        <mxCell id="zxcluQsNIQkMvUdcuhl5-75" value="Extends" style="endArrow=open;endSize=12;dashed=1;html=1;rounded=0;entryX=1;entryY=1;entryDx=0;entryDy=0;edgeStyle=orthogonalEdgeStyle;curved=1;exitX=0;exitY=1;exitDx=0;exitDy=0;" edge="1" parent="1" source="zxcluQsNIQkMvUdcuhl5-73" target="zxcluQsNIQkMvUdcuhl5-36">
          <mxGeometry x="-0.3041" y="-13" width="160" relative="1" as="geometry">
            <mxPoint x="506" y="280" as="sourcePoint" />
            <mxPoint x="430" y="353" as="targetPoint" />
            <mxPoint as="offset" />
          </mxGeometry>
        </mxCell>
      </root>
    </mxGraphModel>
  </diagram>
</mxfile>
